<?xml version="1.0" encoding="UTF-8" standalone="no"?>
<!DOCTYPE svg PUBLIC "-//W3C//DTD SVG 1.1//EN"
 "http://www.w3.org/Graphics/SVG/1.1/DTD/svg11.dtd">
<!-- Generated by graphviz version 2.48.0 (0)
 -->
<!-- Pages: 1 -->
<svg width="267pt" height="113pt"
 viewBox="0.00 0.00 267.00 112.91" xmlns="http://www.w3.org/2000/svg" xmlns:xlink="http://www.w3.org/1999/xlink">
<g id="graph0" class="graph" transform="scale(1 1) rotate(0) translate(4 108.91)">
<polygon fill="white" stroke="transparent" points="-4,4 -4,-108.91 263,-108.91 263,4 -4,4"/>
<!-- Distance from pipe -->
<g id="node1" class="node">
<title>Distance from pipe</title>
<polygon fill="lightgray" stroke="black" points="85,-104.91 0,-104.91 0,-86.91 85,-86.91 85,-104.91"/>
<text text-anchor="middle" x="42.5" y="-93.71" font-family="Times,serif" font-size="9.00">Distance from pipe</text>
</g>
<!-- Jump -->
<g id="node4" class="node">
<title>Jump</title>
<ellipse fill="lightblue" stroke="black" cx="137.5" cy="-25.46" rx="25.41" ry="25.41"/>
<text text-anchor="middle" x="137.5" y="-23.26" font-family="Times,serif" font-size="9.00">Jump</text>
</g>
<!-- Distance from pipe&#45;&gt;Jump -->
<g id="edge1" class="edge">
<title>Distance from pipe&#45;&gt;Jump</title>
<path fill="none" stroke="red" stroke-width="0.13" d="M53.77,-86.79C67.32,-77.02 90.57,-60.27 109.13,-46.9"/>
<polygon fill="red" stroke="red" stroke-width="0.13" points="111.21,-49.71 117.28,-41.03 107.12,-44.03 111.21,-49.71"/>
</g>
<!-- Height of Pipe -->
<g id="node2" class="node">
<title>Height of Pipe</title>
<polygon fill="lightgray" stroke="black" points="172,-104.91 103,-104.91 103,-86.91 172,-86.91 172,-104.91"/>
<text text-anchor="middle" x="137.5" y="-93.71" font-family="Times,serif" font-size="9.00">Height of Pipe</text>
</g>
<!-- Height of Pipe&#45;&gt;Jump -->
<g id="edge2" class="edge">
<title>Height of Pipe&#45;&gt;Jump</title>
<path fill="none" stroke="green" stroke-width="0.57" d="M137.5,-86.79C137.5,-80.34 137.5,-70.84 137.5,-61.29"/>
<polygon fill="green" stroke="green" stroke-width="0.57" points="141,-61.03 137.5,-51.03 134,-61.03 141,-61.03"/>
</g>
<!-- Height of Bird -->
<g id="node3" class="node">
<title>Height of Bird</title>
<polygon fill="lightgray" stroke="black" points="259,-104.91 190,-104.91 190,-86.91 259,-86.91 259,-104.91"/>
<text text-anchor="middle" x="224.5" y="-93.71" font-family="Times,serif" font-size="9.00">Height of Bird</text>
</g>
<!-- Height of Bird&#45;&gt;Jump -->
<g id="edge3" class="edge">
<title>Height of Bird&#45;&gt;Jump</title>
<path fill="none" stroke="red" stroke-width="0.6" d="M214.18,-86.79C202.11,-77.29 181.65,-61.2 164.9,-48.02"/>
<polygon fill="red" stroke="red" stroke-width="0.6" points="167.05,-45.26 157.03,-41.82 162.73,-50.76 167.05,-45.26"/>
</g>
</g>
</svg>
