<?xml version="1.0" encoding="UTF-8" standalone="no"?>
<!DOCTYPE svg PUBLIC "-//W3C//DTD SVG 1.1//EN"
 "http://www.w3.org/Graphics/SVG/1.1/DTD/svg11.dtd">
<!-- Generated by graphviz version 2.48.0 (0)
 -->
<!-- Pages: 1 -->
<svg width="267pt" height="113pt"
 viewBox="0.00 0.00 267.00 112.91" xmlns="http://www.w3.org/2000/svg" xmlns:xlink="http://www.w3.org/1999/xlink">
<g id="graph0" class="graph" transform="scale(1 1) rotate(0) translate(4 108.91)">
<polygon fill="white" stroke="transparent" points="-4,4 -4,-108.91 263,-108.91 263,4 -4,4"/>
<!-- Distance from pipe -->
<g id="node1" class="node">
<title>Distance from pipe</title>
<polygon fill="lightgray" stroke="black" points="85,-104.91 0,-104.91 0,-86.91 85,-86.91 85,-104.91"/>
<text text-anchor="middle" x="42.5" y="-93.71" font-family="Times,serif" font-size="9.00">Distance from pipe</text>
</g>
<!-- Height of Pipe -->
<g id="node2" class="node">
<title>Height of Pipe</title>
<polygon fill="lightgray" stroke="black" points="172,-104.91 103,-104.91 103,-86.91 172,-86.91 172,-104.91"/>
<text text-anchor="middle" x="137.5" y="-93.71" font-family="Times,serif" font-size="9.00">Height of Pipe</text>
</g>
<!-- Jump -->
<g id="node4" class="node">
<title>Jump</title>
<ellipse fill="lightblue" stroke="black" cx="180.5" cy="-25.46" rx="25.41" ry="25.41"/>
<text text-anchor="middle" x="180.5" y="-23.26" font-family="Times,serif" font-size="9.00">Jump</text>
</g>
<!-- Height of Pipe&#45;&gt;Jump -->
<g id="edge1" class="edge">
<title>Height of Pipe&#45;&gt;Jump</title>
<path fill="none" stroke="green" stroke-width="0.55" d="M142.6,-86.79C147.38,-79.19 154.81,-67.36 161.83,-56.18"/>
<polygon fill="green" stroke="green" stroke-width="0.55" points="164.96,-57.78 167.31,-47.45 159.03,-54.05 164.96,-57.78"/>
</g>
<!-- Height of Bird -->
<g id="node3" class="node">
<title>Height of Bird</title>
<polygon fill="lightgray" stroke="black" points="259,-104.91 190,-104.91 190,-86.91 259,-86.91 259,-104.91"/>
<text text-anchor="middle" x="224.5" y="-93.71" font-family="Times,serif" font-size="9.00">Height of Bird</text>
</g>
<!-- Height of Bird&#45;&gt;Jump -->
<g id="edge2" class="edge">
<title>Height of Bird&#45;&gt;Jump</title>
<path fill="none" stroke="red" stroke-width="0.6" d="M219.28,-86.79C214.39,-79.19 206.79,-67.36 199.61,-56.18"/>
<polygon fill="red" stroke="red" stroke-width="0.6" points="202.34,-53.97 193.99,-47.45 196.46,-57.75 202.34,-53.97"/>
</g>
</g>
</svg>
